<svg id="visual" viewBox="0 0 900 600" width="900" height="600" xmlns="http://www.w3.org/2000/svg" xmlns:xlink="http://www.w3.org/1999/xlink" version="1.1"><rect x="0" y="0" width="900" height="600" fill="#001122"></rect><path d="M0 460L64 444L129 447L193 421L257 388L321 465L386 339L450 381L514 345L579 340L643 402L707 461L771 335L836 380L900 370L900 601L836 601L771 601L707 601L643 601L579 601L514 601L450 601L386 601L321 601L257 601L193 601L129 601L64 601L0 601Z" fill="#001122"></path><path d="M0 467L64 490L129 377L193 427L257 392L321 447L386 394L450 416L514 399L579 429L643 403L707 404L771 454L836 479L900 468L900 601L836 601L771 601L707 601L643 601L579 601L514 601L450 601L386 601L321 601L257 601L193 601L129 601L64 601L0 601Z" fill="#302636"></path><path d="M0 430L64 501L129 462L193 478L257 525L321 510L386 508L450 518L514 437L579 511L643 426L707 490L771 498L836 521L900 431L900 601L836 601L771 601L707 601L643 601L579 601L514 601L450 601L386 601L321 601L257 601L193 601L129 601L64 601L0 601Z" fill="#554046"></path><path d="M0 503L64 499L129 485L193 536L257 512L321 554L386 530L450 512L514 493L579 477L643 539L707 480L771 524L836 522L900 554L900 601L836 601L771 601L707 601L643 601L579 601L514 601L450 601L386 601L321 601L257 601L193 601L129 601L64 601L0 601Z" fill="#715f5a"></path><path d="M0 549L64 568L129 557L193 549L257 538L321 529L386 577L450 567L514 523L579 555L643 529L707 562L771 573L836 519L900 537L900 601L836 601L771 601L707 601L643 601L579 601L514 601L450 601L386 601L321 601L257 601L193 601L129 601L64 601L0 601Z" fill="#888277"></path></svg>